<?xml version="1.0" standalone="no"?>
<!DOCTYPE svg PUBLIC "-//W3C//DTD SVG 20010904//EN"
 "http://www.w3.org/TR/2001/REC-SVG-20010904/DTD/svg10.dtd">
<svg version="1.0" xmlns="http://www.w3.org/2000/svg"
 width="499.000000pt" height="500.000000pt" viewBox="0 0 499.000000 500.000000"
 preserveAspectRatio="xMidYMid meet">
<metadata>
Created by potrace 1.11, written by Peter Selinger 2001-2013
</metadata>
<g transform="translate(0.000000,500.000000) scale(0.100000,-0.100000)"
fill="#000000" stroke="none">
<path d="M0 2500 l0 -2500 2495 0 2495 0 0 2500 0 2500 -2495 0 -2495 0 0
-2500z m4969 2476 c8 -10 10 -667 9 -2487 l-3 -2474 -2469 -3 c-1817 -1 -2472
1 -2482 9 -12 10 -14 416 -14 2484 0 1359 3 2475 7 2478 3 4 1117 7 2473 7
2064 0 2469 -2 2479 -14z"/>
<path d="M2270 4954 c-593 -71 -1070 -291 -1469 -679 -219 -213 -364 -412
-505 -695 -123 -247 -198 -494 -237 -780 -18 -125 -18 -515 0 -640 70 -508
255 -918 588 -1302 199 -229 478 -442 768 -584 250 -122 464 -185 761 -224
145 -19 198 -22 389 -17 286 7 468 36 710 114 524 169 981 519 1284 982 191
292 304 586 378 981 26 140 26 619 0 775 -88 522 -304 954 -662 1324 -291 300
-580 488 -948 617 -273 95 -455 125 -777 129 -135 2 -261 1 -280 -1z"/>
</g>
</svg>
